<svg xmlns="http://www.w3.org/2000/svg" version="1.1" height="600" width="960"><g></g><g transform="translate(480,300)scale(1.1904761791229248,1.1904761791229248)"><text style="font-size: 100px; font-family: Impact; fill: rgb(57, 59, 121);" transform="translate(169,-66)rotate(-43.00000056046859)skewX(0)scale(1.00000000712806,1.00000000712806)" text-anchor="middle"></text><text style="font-size: 39px; font-family: Impact; fill: rgb(140, 109, 49);" transform="translate(-93,100)rotate(51.99999959231146)skewX(-3.180554573225393e-15)scale(1.000000034031211,1.000000034031211)" text-anchor="middle">да</text><text style="font-size: 28px; font-family: Impact; fill: rgb(189, 158, 57);" transform="translate(152,33)rotate(-43.00000056046859)skewX(0)scale(1.00000000712806,1.00000000712806)" text-anchor="middle">Што</text><text style="font-size: 80px; font-family: Impact; fill: rgb(231, 186, 82);" transform="translate(-1,57)rotate(-43.00000056046859)skewX(0)scale(1.00000000712806,1.00000000712806)" text-anchor="middle">мне</text><text style="font-size: 28px; font-family: Impact; fill: rgb(231, 203, 148);" transform="translate(-12,-65)rotate(51.99999959231146)skewX(-3.180554573225393e-15)scale(1.000000034031211,1.000000034031211)" text-anchor="middle">da</text><text style="font-size: 28px; font-family: Impact; fill: rgb(132, 60, 57);" transform="translate(202,-121)rotate(-43.00000056046859)skewX(0)scale(1.00000000712806,1.00000000712806)" text-anchor="middle">radim</text><text style="font-size: 28px; font-family: Impact; fill: rgb(173, 73, 74);" transform="translate(-23,-28)rotate(-43.00000056046859)skewX(0)scale(1.00000000712806,1.00000000712806)" text-anchor="middle">jeg</text><text style="font-size: 28px; font-family: Impact; fill: rgb(214, 97, 107);" transform="translate(226,-46)rotate(51.999999592311454)skewX(-3.180554573225393e-15)scale(1.000000034031211,1.000000034031211)" text-anchor="middle">devo</text><text style="font-size: 28px; font-family: Impact; fill: rgb(231, 150, 156);" transform="translate(-202,-12)rotate(-43.00000056046859)skewX(0)scale(1.00000000712806,1.00000000712806)" text-anchor="middle">Co</text><text style="font-size: 28px; font-family: Impact; fill: rgb(123, 65, 115);" transform="translate(-144,-150)rotate(51.999999592311454)skewX(-3.180554573225393e-15)scale(1.000000034031211,1.000000034031211)" text-anchor="middle">Que</text><text style="font-size: 57px; font-family: Impact; fill: rgb(165, 81, 148);" transform="translate(-106,72)rotate(-43.00000056046859)skewX(0)scale(1.00000000712806,1.00000000712806)" text-anchor="middle">mám</text><text style="font-size: 10px; font-family: Impact; fill: rgb(206, 109, 189);" transform="translate(-55,-44)rotate(-43.00000056046859)skewX(0)scale(1.00000000712806,1.00000000712806)" text-anchor="middle">neynə</text><text style="font-size: 10px; font-family: Impact; fill: rgb(222, 158, 214);" transform="translate(-186,-150)rotate(51.99999959231146)skewX(-3.180554573225393e-15)scale(1.000000034031211,1.000000034031211)" text-anchor="middle">edim</text><text style="font-size: 10px; font-family: Impact; fill: rgb(57, 59, 121);" transform="translate(49,27)rotate(-43.00000056046859)skewX(0)scale(1.00000000712806,1.00000000712806)" text-anchor="middle">ինչ</text><text style="font-size: 10px; font-family: Impact; fill: rgb(82, 84, 163);" transform="translate(-183,63)rotate(51.999999592311454)skewX(-3.180554573225393e-15)scale(1.000000034031211,1.000000034031211)" text-anchor="middle">ես</text><text style="font-size: 10px; font-family: Impact; fill: rgb(107, 110, 207);" transform="translate(199,106)rotate(-43.00000056046859)skewX(0)scale(1.00000000712806,1.00000000712806)" text-anchor="middle">անում</text><text style="font-size: 10px; font-family: Impact; fill: rgb(156, 158, 222);" transform="translate(-125,113)rotate(-43.00000056046859)skewX(0)scale(1.00000000712806,1.00000000712806)" text-anchor="middle">рабіць</text><text style="font-size: 10px; font-family: Impact; fill: rgb(99, 121, 57);" transform="translate(287,-61)rotate(51.999999592311454)skewX(-3.180554573225393e-15)scale(1.000000034031211,1.000000034031211)" text-anchor="middle">Какво</text><text style="font-size: 10px; font-family: Impact; fill: rgb(140, 162, 82);" transform="translate(-48,21)rotate(-43.00000056046859)skewX(0)scale(1.00000000712806,1.00000000712806)" text-anchor="middle">трябва</text><text style="font-size: 10px; font-family: Impact; fill: rgb(181, 207, 107);" transform="translate(-150,1)rotate(-43.00000056046859)skewX(0)scale(1.00000000712806,1.00000000712806)" text-anchor="middle">направя</text><text style="font-size: 10px; font-family: Impact; fill: rgb(206, 219, 156);" transform="translate(199,50)rotate(51.99999959231146)skewX(-3.180554573225393e-15)scale(1.000000034031211,1.000000034031211)" text-anchor="middle">Šta</text><text style="font-size: 10px; font-family: Impact; fill: rgb(140, 109, 49);" transform="translate(-207,5)rotate(51.999999592311454)skewX(-3.180554573225393e-15)scale(1.000000034031211,1.000000034031211)" text-anchor="middle">Mit</text><text style="font-size: 10px; font-family: Impact; fill: rgb(189, 158, 57);" transform="translate(-106,110)rotate(51.99999959231146)skewX(-3.180554573225393e-15)scale(1.000000034031211,1.000000034031211)" text-anchor="middle">kell</text><text style="font-size: 10px; font-family: Impact; fill: rgb(231, 186, 82);" transform="translate(66,4)rotate(-43.00000056046859)skewX(0)scale(1.00000000712806,1.00000000712806)" text-anchor="middle">tennem</text><text style="font-size: 10px; font-family: Impact; fill: rgb(231, 203, 148);" transform="translate(-20,-106)rotate(51.99999959231146)skewX(-3.180554573225393e-15)scale(1.000000034031211,1.000000034031211)" text-anchor="middle">Tôi</text><text style="font-size: 10px; font-family: Impact; fill: rgb(132, 60, 57);" transform="translate(-1,-33)rotate(51.999999592311454)skewX(-3.180554573225393e-15)scale(1.000000034031211,1.000000034031211)" text-anchor="middle">nên</text><text style="font-size: 10px; font-family: Impact; fill: rgb(173, 73, 74);" transform="translate(67,71)rotate(51.99999959231146)skewX(-3.180554573225393e-15)scale(1.000000034031211,1.000000034031211)" text-anchor="middle">làm</text><text style="font-size: 10px; font-family: Impact; fill: rgb(214, 97, 107);" transform="translate(-127,30)rotate(51.99999959231146)skewX(-3.180554573225393e-15)scale(1.000000034031211,1.000000034031211)" text-anchor="middle">gì</text><text style="font-size: 10px; font-family: Impact; fill: rgb(231, 150, 156);" transform="translate(162,38)rotate(51.999999592311454)skewX(-3.180554573225393e-15)scale(1.000000034031211,1.000000034031211)" text-anchor="middle">Wat</text><text style="font-size: 10px; font-family: Impact; fill: rgb(123, 65, 115);" transform="translate(108,42)rotate(51.99999959231146)skewX(-3.180554573225393e-15)scale(1.000000034031211,1.000000034031211)" text-anchor="middle">moet</text><text style="font-size: 10px; font-family: Impact; fill: rgb(165, 81, 148);" transform="translate(-142,-99)rotate(-43.00000056046859)skewX(0)scale(1.00000000712806,1.00000000712806)" text-anchor="middle">ik</text><text style="font-size: 10px; font-family: Impact; fill: rgb(206, 109, 189);" transform="translate(46,77)rotate(51.999999592311454)skewX(-3.180554573225393e-15)scale(1.000000034031211,1.000000034031211)" text-anchor="middle">doen</text><text style="font-size: 10px; font-family: Impact; fill: rgb(222, 158, 214);" transform="translate(101,-60)rotate(-43.00000056046859)skewX(0)scale(1.00000000712806,1.00000000712806)" text-anchor="middle">Τι</text><text style="font-size: 10px; font-family: Impact; fill: rgb(57, 59, 121);" transform="translate(69,96)rotate(51.99999959231146)skewX(-3.180554573225393e-15)scale(1.000000034031211,1.000000034031211)" text-anchor="middle">πρέπει</text><text style="font-size: 10px; font-family: Impact; fill: rgb(82, 84, 163);" transform="translate(14,-66)rotate(51.999999592311454)skewX(-3.180554573225393e-15)scale(1.000000034031211,1.000000034031211)" text-anchor="middle">να</text><text style="font-size: 10px; font-family: Impact; fill: rgb(107, 110, 207);" transform="translate(-201,65)rotate(-43.00000056046859)skewX(0)scale(1.00000000712806,1.00000000712806)" text-anchor="middle">κάνω</text><text style="font-size: 10px; font-family: Impact; fill: rgb(156, 158, 222);" transform="translate(-163,-9)rotate(51.99999959231146)skewX(-3.180554573225393e-15)scale(1.000000034031211,1.000000034031211)" text-anchor="middle">რა</text><text style="font-size: 10px; font-family: Impact; fill: rgb(99, 121, 57);" transform="translate(108,60)rotate(51.99999959231146)skewX(-3.180554573225393e-15)scale(1.000000034031211,1.000000034031211)" text-anchor="middle">უნდა</text><text style="font-size: 10px; font-family: Impact; fill: rgb(140, 162, 82);" transform="translate(30,-129)rotate(51.999999592311454)skewX(-3.180554573225393e-15)scale(1.000000034031211,1.000000034031211)" text-anchor="middle">გავაკეთო</text><text style="font-size: 10px; font-family: Impact; fill: rgb(181, 207, 107);" transform="translate(118,132)rotate(-43.00000056046859)skewX(0)scale(1.00000000712806,1.00000000712806)" text-anchor="middle">Hvad</text><text style="font-size: 10px; font-family: Impact; fill: rgb(206, 219, 156);" transform="translate(-113,119)rotate(-43.00000056046859)skewX(0)scale(1.00000000712806,1.00000000712806)" text-anchor="middle">skal</text><text style="font-size: 10px; font-family: Impact; fill: rgb(140, 109, 49);" transform="translate(-225,115)rotate(-43.00000056046859)skewX(0)scale(1.00000000712806,1.00000000712806)" text-anchor="middle">gøre</text><text style="font-size: 10px; font-family: Impact; fill: rgb(189, 158, 57);" transform="translate(178,64)rotate(51.99999959231146)skewX(-3.180554573225393e-15)scale(1.000000034031211,1.000000034031211)" text-anchor="middle">מה</text><text style="font-size: 10px; font-family: Impact; fill: rgb(231, 186, 82);" transform="translate(-55,112)rotate(51.99999959231146)skewX(-3.180554573225393e-15)scale(1.000000034031211,1.000000034031211)" text-anchor="middle">עליי</text><text style="font-size: 10px; font-family: Impact; fill: rgb(231, 203, 148);" transform="translate(-159,-116)rotate(51.999999592311454)skewX(-3.180554573225393e-15)scale(1.000000034031211,1.000000034031211)" text-anchor="middle">לעשות</text><text style="font-size: 10px; font-family: Impact; fill: rgb(132, 60, 57);" transform="translate(-193,-72)rotate(-43.00000056046859)skewX(0)scale(1.00000000712806,1.00000000712806)" text-anchor="middle">Cad</text><text style="font-size: 10px; font-family: Impact; fill: rgb(173, 73, 74);" transform="translate(23,102)rotate(-43.00000056046859)skewX(0)scale(1.00000000712806,1.00000000712806)" text-anchor="middle">ba</text><text style="font-size: 10px; font-family: Impact; fill: rgb(214, 97, 107);" transform="translate(-42,-3)rotate(51.99999959231146)skewX(-3.180554573225393e-15)scale(1.000000034031211,1.000000034031211)" text-anchor="middle">cheart</text><text style="font-size: 10px; font-family: Impact; fill: rgb(107, 110, 207);" transform="translate(-76,149)rotate(51.99999959231146)skewX(-3.180554573225393e-15)scale(1.000000034031211,1.000000034031211)" text-anchor="middle">dom</text><text style="font-size: 10px; font-family: Impact; fill: rgb(231, 150, 156);" transform="translate(24,113)rotate(-43.00000056046859)skewX(0)scale(1.00000000712806,1.00000000712806)" text-anchor="middle">dhéanamh</text><text style="font-size: 10px; font-family: Impact; fill: rgb(123, 65, 115);" transform="translate(-141,37)rotate(-43.00000056046859)skewX(0)scale(1.00000000712806,1.00000000712806)" text-anchor="middle">Hvað</text><text style="font-size: 10px; font-family: Impact; fill: rgb(165, 81, 148);" transform="translate(-27,-86)rotate(51.99999959231146)skewX(-3.180554573225393e-15)scale(1.000000034031211,1.000000034031211)" text-anchor="middle">ætti</text><text style="font-size: 10px; font-family: Impact; fill: rgb(206, 109, 189);" transform="translate(183,-150)rotate(-43.00000056046859)skewX(0)scale(1.00000000712806,1.00000000712806)" text-anchor="middle">ég</text><text style="font-size: 10px; font-family: Impact; fill: rgb(222, 158, 214);" transform="translate(-227,-110)rotate(51.999999592311454)skewX(-3.180554573225393e-15)scale(1.000000034031211,1.000000034031211)" text-anchor="middle">að</text><text style="font-size: 10px; font-family: Impact; fill: rgb(57, 59, 121);" transform="translate(-159,-132)rotate(51.99999959231146)skewX(-3.180554573225393e-15)scale(1.000000034031211,1.000000034031211)" text-anchor="middle">gera</text><text style="font-size: 10px; font-family: Impact; fill: rgb(82, 84, 163);" transform="translate(185,53)rotate(51.99999959231146)skewX(-3.180554573225393e-15)scale(1.000000034031211,1.000000034031211)" text-anchor="middle">Qué</text><text style="font-size: 10px; font-family: Impact; fill: rgb(107, 110, 207);" transform="translate(34,-14)rotate(51.99999959231146)skewX(-3.180554573225393e-15)scale(1.000000034031211,1.000000034031211)" text-anchor="middle">debo</text><text style="font-size: 10px; font-family: Impact; fill: rgb(156, 158, 222);" transform="translate(-74,-41)rotate(-43.00000056046859)skewX(0)scale(1.00000000712806,1.00000000712806)" text-anchor="middle">hacer</text><text style="font-size: 10px; font-family: Impact; fill: rgb(99, 121, 57);" transform="translate(4,-133)rotate(-43.00000056046859)skewX(0)scale(1.00000000712806,1.00000000712806)" text-anchor="middle">Che</text><text style="font-size: 10px; font-family: Impact; fill: rgb(140, 162, 82);" transform="translate(193,24)rotate(-43.00000056046859)skewX(0)scale(1.00000000712806,1.00000000712806)" text-anchor="middle">cosa</text><text style="font-size: 10px; font-family: Impact; fill: rgb(181, 207, 107);" transform="translate(35,38)rotate(-43.00000056046859)skewX(0)scale(1.00000000712806,1.00000000712806)" text-anchor="middle">fare</text><text style="font-size: 10px; font-family: Impact; fill: rgb(206, 219, 156);" transform="translate(141,-74)rotate(51.999999592311454)skewX(-3.180554573225393e-15)scale(1.000000034031211,1.000000034031211)" text-anchor="middle">маған</text><text style="font-size: 10px; font-family: Impact; fill: rgb(140, 109, 49);" transform="translate(-79,-25)rotate(51.999999592311454)skewX(-3.180554573225393e-15)scale(1.000000034031211,1.000000034031211)" text-anchor="middle">не</text><text style="font-size: 10px; font-family: Impact; fill: rgb(189, 158, 57);" transform="translate(36,118)rotate(-43.00000056046859)skewX(0)scale(1.00000000712806,1.00000000712806)" text-anchor="middle">істеу</text><text style="font-size: 10px; font-family: Impact; fill: rgb(231, 186, 82);" transform="translate(95,-19)rotate(-43.00000056046859)skewX(0)scale(1.00000000712806,1.00000000712806)" text-anchor="middle">керек</text><text style="font-size: 10px; font-family: Impact; fill: rgb(231, 203, 148);" transform="translate(-179,31)rotate(51.999999592311454)skewX(-3.180554573225393e-15)scale(1.000000034031211,1.000000034031211)" text-anchor="middle">我該怎麼辦</text><text style="font-size: 10px; font-family: Impact; fill: rgb(132, 60, 57);" transform="translate(173,-18)rotate(-43.00000056046859)skewX(0)scale(1.00000000712806,1.00000000712806)" text-anchor="middle">어떻게해야합니까</text><text style="font-size: 10px; font-family: Impact; fill: rgb(173, 73, 74);" transform="translate(-166,-160)rotate(-43.00000056046859)skewX(0)scale(1.00000000712806,1.00000000712806)" text-anchor="middle">quid</text><text style="font-size: 10px; font-family: Impact; fill: rgb(222, 158, 214);" transform="translate(-124,17)rotate(51.999999592311454)skewX(-3.180554573225393e-15)scale(1.000000034031211,1.000000034031211)" text-anchor="middle">vis</text><text style="font-size: 10px; font-family: Impact; fill: rgb(214, 97, 107);" transform="translate(-125,-111)rotate(-43.00000056046859)skewX(0)scale(1.00000000712806,1.00000000712806)" text-anchor="middle">facere</text><text style="font-size: 10px; font-family: Impact; fill: rgb(231, 150, 156);" transform="translate(18,-24)rotate(51.999999592311454)skewX(-3.180554573225393e-15)scale(1.000000034031211,1.000000034031211)" text-anchor="middle">Ko</text><text style="font-size: 10px; font-family: Impact; fill: rgb(123, 65, 115);" transform="translate(-42,125)rotate(-43.00000056046859)skewX(0)scale(1.00000000712806,1.00000000712806)" text-anchor="middle">man</text><text style="font-size: 10px; font-family: Impact; fill: rgb(165, 81, 148);" transform="translate(-33,-95)rotate(-43.00000056046859)skewX(0)scale(1.00000000712806,1.00000000712806)" text-anchor="middle">darīt</text><text style="font-size: 10px; font-family: Impact; fill: rgb(206, 109, 189);" transform="translate(-204,-79)rotate(-43.00000056046859)skewX(0)scale(1.00000000712806,1.00000000712806)" text-anchor="middle">Ką</text><text style="font-size: 10px; font-family: Impact; fill: rgb(222, 158, 214);" transform="translate(-165,112)rotate(51.99999959231146)skewX(-3.180554573225393e-15)scale(1.000000034031211,1.000000034031211)" text-anchor="middle">turėčiau</text><text style="font-size: 10px; font-family: Impact; fill: rgb(57, 59, 121);" transform="translate(236,-157)rotate(-43.00000056046859)skewX(0)scale(1.00000000712806,1.00000000712806)" text-anchor="middle">daryti</text><text style="font-size: 10px; font-family: Impact; fill: rgb(82, 84, 163);" transform="translate(-46,-65)rotate(-43.00000056046859)skewX(0)scale(1.00000000712806,1.00000000712806)" text-anchor="middle">треба</text><text style="font-size: 10px; font-family: Impact; fill: rgb(107, 110, 207);" transform="translate(-151,-138)rotate(51.999999592311454)skewX(-3.180554573225393e-15)scale(1.000000034031211,1.000000034031211)" text-anchor="middle">направам</text><text style="font-size: 10px; font-family: Impact; fill: rgb(156, 158, 222);" transform="translate(215,-42)rotate(51.99999959231146)skewX(-3.180554573225393e-15)scale(1.000000034031211,1.000000034031211)" text-anchor="middle">Би</text><text style="font-size: 10px; font-family: Impact; fill: rgb(99, 121, 57);" transform="translate(-69,-161)rotate(51.999999592311454)skewX(-3.180554573225393e-15)scale(1.000000034031211,1.000000034031211)" text-anchor="middle">юу</text><text style="font-size: 10px; font-family: Impact; fill: rgb(140, 162, 82);" transform="translate(-182,85)rotate(-43.00000056046859)skewX(0)scale(1.00000000712806,1.00000000712806)" text-anchor="middle">хийх</text><text style="font-size: 10px; font-family: Impact; fill: rgb(181, 207, 107);" transform="translate(-175,56)rotate(51.999999592311454)skewX(-3.180554573225393e-15)scale(1.000000034031211,1.000000034031211)" text-anchor="middle">ёстой</text><text style="font-size: 10px; font-family: Impact; fill: rgb(206, 219, 156);" transform="translate(6,106)rotate(51.99999959231146)skewX(-3.180554573225393e-15)scale(1.000000034031211,1.000000034031211)" text-anchor="middle">вэ</text><text style="font-size: 10px; font-family: Impact; fill: rgb(140, 109, 49);" transform="translate(211,-27)rotate(51.999999592311454)skewX(-3.180554573225393e-15)scale(1.000000034031211,1.000000034031211)" text-anchor="middle">kann</text><text style="font-size: 10px; font-family: Impact; fill: rgb(189, 158, 57);" transform="translate(-255,-145)rotate(51.99999959231146)skewX(-3.180554573225393e-15)scale(1.000000034031211,1.000000034031211)" text-anchor="middle">ich</text><text style="font-size: 10px; font-family: Impact; fill: rgb(231, 186, 82);" transform="translate(167,66)rotate(51.99999959231146)skewX(-3.180554573225393e-15)scale(1.000000034031211,1.000000034031211)" text-anchor="middle">tun</text><text style="font-size: 10px; font-family: Impact; fill: rgb(231, 203, 148);" transform="translate(-157,54)rotate(51.99999959231146)skewX(-3.180554573225393e-15)scale(1.000000034031211,1.000000034031211)" text-anchor="middle">म</text><text style="font-size: 10px; font-family: Impact; fill: rgb(132, 60, 57);" transform="translate(-167,-129)rotate(-43.00000056046859)skewX(0)scale(1.00000000712806,1.00000000712806)" text-anchor="middle">के</text><text style="font-size: 10px; font-family: Impact; fill: rgb(173, 73, 74);" transform="translate(93,78)rotate(-43.00000056046859)skewX(0)scale(1.00000000712806,1.00000000712806)" text-anchor="middle">गर्नुपर्छ</text><text style="font-size: 10px; font-family: Impact; fill: rgb(214, 97, 107);" transform="translate(-231,-18)rotate(-43.00000056046859)skewX(0)scale(1.00000000712806,1.00000000712806)" text-anchor="middle">Hva</text><text style="font-size: 10px; font-family: Impact; fill: rgb(231, 150, 156);" transform="translate(-223,-71)rotate(51.999999592311454)skewX(-3.180554573225393e-15)scale(1.000000034031211,1.000000034031211)" text-anchor="middle">bør</text><text style="font-size: 10px; font-family: Impact; fill: rgb(123, 65, 115);" transform="translate(108,-46)rotate(51.999999592311454)skewX(-3.180554573225393e-15)scale(1.000000034031211,1.000000034031211)" text-anchor="middle">gjøre</text><text style="font-size: 10px; font-family: Impact; fill: rgb(165, 81, 148);" transform="translate(42,-25)rotate(51.99999959231146)skewX(-3.180554573225393e-15)scale(1.000000034031211,1.000000034031211)" text-anchor="middle">باید</text><text style="font-size: 10px; font-family: Impact; fill: rgb(206, 109, 189);" transform="translate(260,-124)rotate(51.999999592311454)skewX(-3.180554573225393e-15)scale(1.000000034031211,1.000000034031211)" text-anchor="middle">چه</text><text style="font-size: 10px; font-family: Impact; fill: rgb(222, 158, 214);" transform="translate(-40,110)rotate(-43.00000056046859)skewX(0)scale(1.00000000712806,1.00000000712806)" text-anchor="middle">کار</text><text style="font-size: 10px; font-family: Impact; fill: rgb(57, 59, 121);" transform="translate(117,78)rotate(51.99999959231146)skewX(-3.180554573225393e-15)scale(1.000000034031211,1.000000034031211)" text-anchor="middle">کنم</text><text style="font-size: 10px; font-family: Impact; fill: rgb(82, 84, 163);" transform="translate(132,-56)rotate(-43.00000056046859)skewX(0)scale(1.00000000712806,1.00000000712806)" text-anchor="middle">należy</text><text style="font-size: 10px; font-family: Impact; fill: rgb(107, 110, 207);" transform="translate(45,-37)rotate(51.99999959231146)skewX(-3.180554573225393e-15)scale(1.000000034031211,1.000000034031211)" text-anchor="middle">zrobić</text><text style="font-size: 10px; font-family: Impact; fill: rgb(156, 158, 222);" transform="translate(167,-7)rotate(51.999999592311454)skewX(-3.180554573225393e-15)scale(1.000000034031211,1.000000034031211)" text-anchor="middle">O</text><text style="font-size: 10px; font-family: Impact; fill: rgb(99, 121, 57);" transform="translate(-177,141)rotate(-43.00000056046859)skewX(0)scale(1.00000000712806,1.00000000712806)" text-anchor="middle">fazer</text><text style="font-size: 10px; font-family: Impact; fill: rgb(140, 162, 82);" transform="translate(116,-72)rotate(51.999999592311454)skewX(-3.180554573225393e-15)scale(1.000000034031211,1.000000034031211)" text-anchor="middle">Ce</text><text style="font-size: 10px; font-family: Impact; fill: rgb(181, 207, 107);" transform="translate(228,-16)rotate(-43.00000056046859)skewX(0)scale(1.00000000712806,1.00000000712806)" text-anchor="middle">ar</text><text style="font-size: 10px; font-family: Impact; fill: rgb(206, 219, 156);" transform="translate(-162,-24)rotate(51.99999959231146)skewX(-3.180554573225393e-15)scale(1.000000034031211,1.000000034031211)" text-anchor="middle">trebui</text><text style="font-size: 10px; font-family: Impact; fill: rgb(140, 109, 49);" transform="translate(-179,107)rotate(-43.00000056046859)skewX(0)scale(1.00000000712806,1.00000000712806)" text-anchor="middle">să</text><text style="font-size: 10px; font-family: Impact; fill: rgb(189, 158, 57);" transform="translate(178,-131)rotate(-43.00000056046859)skewX(0)scale(1.00000000712806,1.00000000712806)" text-anchor="middle">fac</text><text style="font-size: 78px; font-family: Impact; fill: rgb(231, 186, 82);" transform="translate(59,-110)rotate(51.99999959231146)skewX(-3.180554573225393e-15)scale(1.000000034031211,1.000000034031211)" text-anchor="middle">Что</text><text style="font-size: 78px; font-family: Impact; fill: rgb(231, 203, 148);" transform="translate(1,-145)rotate(-43.00000056046859)skewX(0)scale(1.00000000712806,1.00000000712806)" text-anchor="middle">делать</text><text style="font-size: 10px; font-family: Impact; fill: rgb(132, 60, 57);" transform="translate(-63,17)rotate(-43.00000056046859)skewX(0)scale(1.00000000712806,1.00000000712806)" text-anchor="middle">Шта</text><text style="font-size: 10px; font-family: Impact; fill: rgb(173, 73, 74);" transform="translate(-177,-52)rotate(51.99999959231146)skewX(-3.180554573225393e-15)scale(1.000000034031211,1.000000034031211)" text-anchor="middle">радим</text><text style="font-size: 10px; font-family: Impact; fill: rgb(214, 97, 107);" transform="translate(246,10)rotate(51.999999592311454)skewX(-3.180554573225393e-15)scale(1.000000034031211,1.000000034031211)" text-anchor="middle">Čo</text><text style="font-size: 10px; font-family: Impact; fill: rgb(231, 150, 156);" transform="translate(28,-109)rotate(51.99999959231146)skewX(-3.180554573225393e-15)scale(1.000000034031211,1.000000034031211)" text-anchor="middle">robiť</text><text style="font-size: 10px; font-family: Impact; fill: rgb(123, 65, 115);" transform="translate(-78,-153)rotate(-43.00000056046859)skewX(0)scale(1.00000000712806,1.00000000712806)" text-anchor="middle">Kaj</text><text style="font-size: 10px; font-family: Impact; fill: rgb(165, 81, 148);" transform="translate(125,54)rotate(-43.00000056046859)skewX(0)scale(1.00000000712806,1.00000000712806)" text-anchor="middle">naj</text><text style="font-size: 10px; font-family: Impact; fill: rgb(206, 109, 189);" transform="translate(-19,-56)rotate(51.99999959231146)skewX(-3.180554573225393e-15)scale(1.000000034031211,1.000000034031211)" text-anchor="middle">storim</text><text style="font-size: 10px; font-family: Impact; fill: rgb(222, 158, 214);" transform="translate(-112,148)rotate(51.99999959231146)skewX(-3.180554573225393e-15)scale(1.000000034031211,1.000000034031211)" text-anchor="middle">Maxaan</text><text style="font-size: 10px; font-family: Impact; fill: rgb(57, 59, 121);" transform="translate(205,-12)rotate(51.999999592311454)skewX(-3.180554573225393e-15)scale(1.000000034031211,1.000000034031211)" text-anchor="middle">sameeyaa</text><text style="font-size: 10px; font-family: Impact; fill: rgb(82, 84, 163);" transform="translate(-189,-53)rotate(-43.00000056046859)skewX(0)scale(1.00000000712806,1.00000000712806)" text-anchor="middle">Чӣ</text><text style="font-size: 10px; font-family: Impact; fill: rgb(107, 110, 207);" transform="translate(159,-97)rotate(51.99999959231146)skewX(-3.180554573225393e-15)scale(1.000000034031211,1.000000034031211)" text-anchor="middle">бояд</text><text style="font-size: 10px; font-family: Impact; fill: rgb(156, 158, 222);" transform="translate(152,-82)rotate(51.999999592311454)skewX(-3.180554573225393e-15)scale(1.000000034031211,1.000000034031211)" text-anchor="middle">кард</text><text style="font-size: 10px; font-family: Impact; fill: rgb(99, 121, 57);" transform="translate(216,133)rotate(-43.00000056046859)skewX(0)scale(1.00000000712806,1.00000000712806)" text-anchor="middle">สิ่งที่ฉัน</text><text style="font-size: 10px; font-family: Impact; fill: rgb(140, 162, 82);" transform="translate(54,103)rotate(51.999999592311454)skewX(-3.180554573225393e-15)scale(1.000000034031211,1.000000034031211)" text-anchor="middle">ควรทำอย่างไร</text><text style="font-size: 10px; font-family: Impact; fill: rgb(181, 207, 107);" transform="translate(-193,52)rotate(51.99999959231146)skewX(-3.180554573225393e-15)scale(1.000000034031211,1.000000034031211)" text-anchor="middle">Ne</text><text style="font-size: 10px; font-family: Impact; fill: rgb(206, 219, 156);" transform="translate(-69,-180)rotate(-43.00000056046859)skewX(0)scale(1.00000000712806,1.00000000712806)" text-anchor="middle">yapmalıyım</text><text style="font-size: 10px; font-family: Impact; fill: rgb(140, 109, 49);" transform="translate(-112,-127)rotate(51.99999959231146)skewX(-3.180554573225393e-15)scale(1.000000034031211,1.000000034031211)" text-anchor="middle">nima</text><text style="font-size: 10px; font-family: Impact; fill: rgb(189, 158, 57);" transform="translate(-219,51)rotate(51.99999959231146)skewX(-3.180554573225393e-15)scale(1.000000034031211,1.000000034031211)" text-anchor="middle">qilay</text><text style="font-size: 10px; font-family: Impact; fill: rgb(231, 186, 82);" transform="translate(-191,70)rotate(-43.00000056046859)skewX(0)scale(1.00000000712806,1.00000000712806)" text-anchor="middle">що</text><text style="font-size: 10px; font-family: Impact; fill: rgb(231, 203, 148);" transform="translate(-63,-20)rotate(-43.00000056046859)skewX(0)scale(1.00000000712806,1.00000000712806)" text-anchor="middle">мені</text><text style="font-size: 10px; font-family: Impact; fill: rgb(132, 60, 57);" transform="translate(-201,109)rotate(-43.00000056046859)skewX(0)scale(1.00000000712806,1.00000000712806)" text-anchor="middle">робити</text><text style="font-size: 10px; font-family: Impact; fill: rgb(173, 73, 74);" transform="translate(-185,-13)rotate(-43.00000056046859)skewX(0)scale(1.00000000712806,1.00000000712806)" text-anchor="middle">مجھے</text><text style="font-size: 10px; font-family: Impact; fill: rgb(214, 97, 107);" transform="translate(2,113)rotate(-43.00000056046859)skewX(0)scale(1.00000000712806,1.00000000712806)" text-anchor="middle">کیا</text><text style="font-size: 10px; font-family: Impact; fill: rgb(231, 150, 156);" transform="translate(-32,132)rotate(-43.00000056046859)skewX(0)scale(1.00000000712806,1.00000000712806)" text-anchor="middle">کرنا</text><text style="font-size: 10px; font-family: Impact; fill: rgb(123, 65, 115);" transform="translate(20,-51)rotate(51.99999959231146)skewX(-3.180554573225393e-15)scale(1.000000034031211,1.000000034031211)" text-anchor="middle">چاہیے</text><text style="font-size: 10px; font-family: Impact; fill: rgb(165, 81, 148);" transform="translate(-67,122)rotate(-43.00000056046859)skewX(0)scale(1.00000000712806,1.00000000712806)" text-anchor="middle">doisje</text><text style="font-size: 10px; font-family: Impact; fill: rgb(206, 109, 189);" transform="translate(243,-65)rotate(51.999999592311454)skewX(-3.180554573225393e-15)scale(1.000000034031211,1.000000034031211)" text-anchor="middle">faire</text><text style="font-size: 10px; font-family: Impact; fill: rgb(222, 158, 214);" transform="translate(-49,2)rotate(-43.00000056046859)skewX(0)scale(1.00000000712806,1.00000000712806)" text-anchor="middle">Što</text><text style="font-size: 39px; font-family: Impact; fill: rgb(57, 59, 121);" transform="translate(161,143)rotate(51.999999592311454)skewX(-3.180554573225393e-15)scale(1.000000034031211,1.000000034031211)" text-anchor="middle">dělat</text><text style="font-size: 28px; font-family: Impact; fill: rgb(82, 84, 163);" transform="translate(5,-95)rotate(51.99999959231146)skewX(-3.180554573225393e-15)scale(1.000000034031211,1.000000034031211)" text-anchor="middle">Mida</text><text style="font-size: 57px; font-family: Impact; fill: rgb(107, 110, 207);" transform="translate(54,-46)rotate(51.999999592311454)skewX(-3.180554573225393e-15)scale(1.000000034031211,1.000000034031211)" text-anchor="middle">ma</text><text style="font-size: 57px; font-family: Impact; fill: rgb(156, 158, 222);" transform="translate(-166,-56)rotate(51.99999959231146)skewX(-3.180554573225393e-15)scale(1.000000034031211,1.000000034031211)" text-anchor="middle">peaksin</text><text style="font-size: 28px; font-family: Impact; fill: rgb(99, 121, 57);" transform="translate(-223,-135)rotate(-43.00000056046859)skewX(0)scale(1.00000000712806,1.00000000712806)" text-anchor="middle">tegema</text><text style="font-size: 10px; font-family: Impact; fill: rgb(140, 162, 82);" transform="translate(216,164)rotate(-43.00000056046859)skewX(0)scale(1.00000000712806,1.00000000712806)" text-anchor="middle">私は何をすべきでしょうか</text><text style="font-size: 47px; font-family: Impact; fill: rgb(222, 158, 214);" transform="translate(170,-35)rotate(-43.00000056046859)skewX(0)scale(1.00000000712806,1.00000000712806)" text-anchor="middle">tegemaMida</text><text style="font-size: 28px; font-family: Impact; fill: rgb(57, 59, 121);" transform="translate(65,58)rotate(-43.00000056046859)skewX(0)scale(1.00000000712806,1.00000000712806)" text-anchor="middle">Сo</text><text style="font-size: 28px; font-family: Impact; fill: rgb(82, 84, 163);" transform="translate(7,93)rotate(-43.00000056046859)skewX(0)scale(1.00000000712806,1.00000000712806)" text-anchor="middle">dělatСo</text></g></svg>